<?xml version="1.0" standalone="no"?>
<!DOCTYPE svg PUBLIC "-//W3C//DTD SVG 20010904//EN"
 "http://www.w3.org/TR/2001/REC-SVG-20010904/DTD/svg10.dtd">
<svg version="1.0" xmlns="http://www.w3.org/2000/svg"
 width="256.000000pt" height="256.000000pt" viewBox="0 0 256.000000 256.000000"
 preserveAspectRatio="xMidYMid meet">
<metadata>
Created by potrace 1.14, written by Peter Selinger 2001-2017
</metadata>
<g transform="translate(0.000000,256.000000) scale(0.100000,-0.100000)"
fill="#000000" stroke="none">
<path d="M500 2553 c-118 -20 -229 -80 -321 -172 -87 -86 -130 -162 -160 -279
-18 -71 -19 -117 -19 -808 0 -817 1 -826 66 -962 71 -146 230 -273 394 -313
81 -20 1559 -20 1640 0 164 40 323 167 394 313 65 136 66 145 66 962 0 691 -1
737 -19 808 -30 117 -73 193 -160 279 -75 76 -131 111 -241 153 -54 20 -67 21
-835 22 -429 1 -791 0 -805 -3z m467 -607 c86 -23 145 -58 217 -128 63 -63 71
-68 111 -68 67 0 145 -18 205 -47 68 -33 166 -131 202 -201 l26 -53 94 -2 c80
-2 102 -7 160 -34 184 -86 277 -290 220 -479 -38 -124 -109 -205 -228 -261
l-59 -28 -535 0 -535 0 -63 34 c-78 42 -134 105 -163 180 -18 47 -20 71 -16
148 4 89 4 91 -21 104 -46 25 -130 129 -159 197 -25 61 -28 78 -28 188 0 120
0 120 39 199 100 201 323 307 533 251z"/>
</g>
</svg>
